<svg xmlns="http://www.w3.org/2000/svg" viewBox="0 0 40.85 39.15"><defs><style>.cls-1{fill:#cbab00;}.cls-1,.cls-2{fill-rule:evenodd;}.cls-2{fill:#3d4551;}</style></defs><title>confirmation</title><g id="Calque_2" data-name="Calque 2"><g id="Layer_1" data-name="Layer 1"><path class="cls-1" d="M29,13l7.78.87a4.45,4.45,0,0,1,4.07,4.88,4.91,4.91,0,0,1-.5,1.66,4.43,4.43,0,0,1,.52,2.69,4.87,4.87,0,0,1-1.19,2.63,4.5,4.5,0,0,1,.13,1.74,4.89,4.89,0,0,1-1.38,2.84,4.75,4.75,0,0,1,0,1.34,5.07,5.07,0,0,1-4.58,4.23c-4.56.34-11.1,1.34-15.36-.41a8.46,8.46,0,0,0-2.86-1H11.93V17.75l2-.31a1.52,1.52,0,0,0,1.1-.56l2.76-3.77c1.86-2.54,1.56-6.73,1.64-9.75S22.74-.7,25.3.48a5.25,5.25,0,0,1,3.05,4.06,39.64,39.64,0,0,1,.26,7.3c0,.44-.17,1.06.35,1.12ZM14.32,32H15.6c1.6,0,2.62.75,3.77,1.23,3.64,1.5,10.16.55,14.27.24A2.7,2.7,0,0,0,36,31.33a1.74,1.74,0,0,0-.65-1.73.17.17,0,0,1,.06-.3,2.59,2.59,0,0,0,1.95-2.15,1.94,1.94,0,0,0-.88-1.92.17.17,0,0,1,0-.31,2.59,2.59,0,0,0,1.89-2.14,1.92,1.92,0,0,0-1.31-2.12.17.17,0,0,1,0-.31,2.45,2.45,0,0,0,1.32-1.92c.18-1.53-1-2.13-2.28-2.27l-7.46-.83C27.49,15.2,26,14,26.16,12.69A37.13,37.13,0,0,0,26,4.85c-.33-2.54-4.09-3.34-4.14-1.42-.09,3.75.21,8-2.1,11.1L17,18.29a3.57,3.57,0,0,1-1.68,1.26c-.31.12-1-.09-1,.25V32Z"/><path class="cls-2" d="M0,16.16H9.89v23H0v-23ZM4.95,33a2,2,0,1,1-2,2,2,2,0,0,1,2-2Z"/></g></g></svg>