<svg xmlns="http://www.w3.org/2000/svg" viewBox="0 0 43.22 43.9"><defs><style>.cls-1{fill:#3d4551;}.cls-2{fill:#cbab00;fill-rule:evenodd;}</style></defs><title>prendre_contact</title><g id="Calque_2" data-name="Calque 2"><g id="Layer_1" data-name="Layer 1"><path class="cls-1" d="M18.17,41.86a1,1,0,1,1-.35,2A21.6,21.6,0,0,1,3.57,10.73a33.36,33.36,0,0,0,.16,4A19.55,19.55,0,0,0,18.17,41.86ZM18,1.33A21.61,21.61,0,0,1,43.22,22.62,21.34,21.34,0,0,1,32,41.55a4.58,4.58,0,0,1-5.25-.35c.61-.41,1.24-.81,1.8-1.27a2.69,2.69,0,0,0,2.49-.19,19.28,19.28,0,0,0,10.1-17.11A19.56,19.56,0,0,0,18.33,3.36l-.35-2Z"/><path class="cls-2" d="M18.53,38.78c-9.25-6.69-15-22.43-12.2-33.5C6.77,3.51,8.16.47,11,.2c1.82-.17,4.52-.83,5,1.7l1.24,7.27c.43,2.53-2.23,2.89-4,3.4-2.08.6-2.25-.3-1.87,1.75a54.12,54.12,0,0,0,5.2,14.28c1,1.82.58,1,2.56.14,1.67-.74,3.94-2.18,5.24,0l3.72,6.36c1.3,2.22-1.2,3.45-2.7,4.49-2.38,1.65-5.4.21-6.88-.86Z"/></g></g></svg>