<svg xmlns="http://www.w3.org/2000/svg" viewBox="0 0 23.1 49.33"><defs><style>.cls-1{fill:#f9f8f4;}.cls-2{fill:#3d4551;}.cls-3{fill:#cbab00;}</style></defs><title>visuelle</title><g id="Calque_2" data-name="Calque 2"><g id="Layer_1" data-name="Layer 1"><path class="cls-1" d="M17.4,9.85a.45.45,0,0,0-.46.36c0,.32-.06,1.94-.05,3.51a11.38,11.38,0,0,1,1.86,1.22A29.16,29.16,0,0,1,18,10.63C17.93,9.91,17.53,9.86,17.4,9.85Z"/><path class="cls-1" d="M5,10.48a26.6,26.6,0,0,1-1,4.67l.39-.24A11.38,11.38,0,0,1,6,13.84c0-1.64.07-3.41,0-3.75a.45.45,0,0,0-.46-.37C5.46,9.72,5.05,9.77,5,10.48Z"/><path class="cls-1" d="M5.45,38.13a.45.45,0,0,0,.46-.36c0-.33.07-2.06.07-3.69A11.61,11.61,0,0,1,4,32.73a27.28,27.28,0,0,1,.82,4.62C4.91,37.92,5.2,38.13,5.45,38.13Z"/><path class="cls-1" d="M16.87,34.21c-.05,1.64-.09,3.4-.05,3.74a.45.45,0,0,0,.46.37c.32,0,.56-.28.62-.76a26.51,26.51,0,0,1,1-4.66L18.8,33A11.62,11.62,0,0,1,16.87,34.21Z"/><path class="cls-1" d="M4.82,3.76a.67.67,0,0,0,.63.71l12,.13a.67.67,0,0,0,.65-.69.67.67,0,0,0-.63-.71l-12-.13A.67.67,0,0,0,4.82,3.76Z"/><path class="cls-1" d="M18,45.81a.68.68,0,0,0-.64-.71L5.21,45a.7.7,0,0,0,0,1.4l12.11.14A.68.68,0,0,0,18,45.81Z"/><path class="cls-1" d="M11.68,12.55A11.42,11.42,0,1,0,23,24.09,11.43,11.43,0,0,0,11.68,12.55Zm-.1,20.37a9.06,9.06,0,1,1,9.16-9A9.06,9.06,0,0,1,11.57,32.92Z"/><path class="cls-2" d="M23.1,24.09a11.53,11.53,0,0,0-4.17-9,28,28,0,0,1-.8-4.48,1,1,0,0,0-.49-.84l.05-5.07a.85.85,0,0,0,0-1.59l0-3L5.3,0l0,3a.85.85,0,0,0,0,1.61L5.2,9.72a1.06,1.06,0,0,0-.37.75,25,25,0,0,1-1,4.83l-.07.17a11.53,11.53,0,0,0,.11,17.09,25.26,25.26,0,0,1,.88,4.81,1.34,1.34,0,0,0,.16.54L4.8,45a.86.86,0,0,0,0,1.42l0,2.81,12.9.14,0-2.79a.86.86,0,0,0,0-1.45l.08-6.87a1.2,1.2,0,0,0,.25-.64,25,25,0,0,1,1.05-4.82l0-.06A11.53,11.53,0,0,0,23.1,24.09ZM18.89,32.9a26.51,26.51,0,0,0-1,4.66c-.06.48-.29.76-.62.76a.45.45,0,0,1-.46-.37c0-.33,0-2.1.05-3.74A11.62,11.62,0,0,0,18.8,33ZM5.19,46.37a.7.7,0,0,1,0-1.4l12.11.13a.7.7,0,0,1,0,1.4ZM6,34.08c0,1.63,0,3.36-.07,3.69a.45.45,0,0,1-.46.36c-.25,0-.54-.21-.6-.78A27.28,27.28,0,0,0,4,32.73,11.61,11.61,0,0,0,6,34.08Zm5.44,1.3A11.42,11.42,0,1,1,23,24.09,11.43,11.43,0,0,1,11.42,35.38ZM17.48,3.21a.67.67,0,0,1,.63.71.67.67,0,0,1-.65.69l-12-.13a.67.67,0,0,1-.63-.71.67.67,0,0,1,.65-.69Zm-.59,10.52c0-1.57,0-3.19.05-3.51a.45.45,0,0,1,.46-.36c.12,0,.52.06.6.78a29.16,29.16,0,0,0,.75,4.31A11.38,11.38,0,0,0,16.89,13.73Zm-11.31-4a.45.45,0,0,1,.46.37c0,.33,0,2.1,0,3.75a11.38,11.38,0,0,0-1.61,1.07L4,15.15a26.6,26.6,0,0,0,1-4.67C5.05,9.77,5.46,9.72,5.58,9.72Z"/><path class="cls-3" d="M11.78,14.8a9.06,9.06,0,1,0,9,9.16A9.06,9.06,0,0,0,11.78,14.8Zm-.44,1.06a.21.21,0,1,1,.43,0l0,2.17a.21.21,0,1,1-.43,0ZM5.26,23.93l-2,0a.22.22,0,0,1,0-.45l2,0a.22.22,0,1,1,0,.45Zm6.32,8.19a.22.22,0,1,1-.43,0l0-2.17a.21.21,0,1,1,.43,0Zm.08-7.24a1,1,0,0,1-.83-1.59L7.49,21.37l.13-.23L11,23.08a1,1,0,0,1,1.41.1L17.34,21l.11.24-4.86,2.19a1,1,0,0,1,.1.46A1,1,0,0,1,11.66,24.87Zm7.8-.54-2,0a.22.22,0,1,1,0-.45l2,0a.22.22,0,1,1,0,.45Z"/><path class="cls-1" d="M17.44,21.22,17.34,21l-4.9,2.21a1,1,0,0,0-1.41-.1l-3.4-1.94-.13.23,3.34,1.91a1,1,0,1,0,1.85.59,1,1,0,0,0-.1-.46Z"/><path class="cls-1" d="M11.52,18.24a.21.21,0,0,0,.22-.21l0-2.17a.21.21,0,1,0-.43,0l0,2.17A.22.22,0,0,0,11.52,18.24Z"/><path class="cls-1" d="M11.4,29.73a.21.21,0,0,0-.22.21l0,2.17a.22.22,0,1,0,.43,0l0-2.17A.22.22,0,0,0,11.4,29.73Z"/><path class="cls-1" d="M5.26,23.48l-2,0a.22.22,0,0,0,0,.45l2,0a.22.22,0,1,0,0-.45Z"/><path class="cls-1" d="M19.47,23.88l-2,0a.22.22,0,1,0,0,.45l2,0a.22.22,0,1,0,0-.45Z"/></g></g></svg>