<?xml version="1.0" encoding="utf-8"?>
<!-- Generator: Adobe Illustrator 19.0.0, SVG Export Plug-In . SVG Version: 6.00 Build 0)  -->
<svg version="1.1" id="Layer_1" xmlns="http://www.w3.org/2000/svg" xmlns:xlink="http://www.w3.org/1999/xlink" x="0px" y="0px"
	 viewBox="-167 28.4 24.6 24.6" style="enable-background:new -167 28.4 24.6 24.6;" xml:space="preserve">
<style type="text/css">
	.st0{fill:#FFFFFF;stroke:#FFFFFF;stroke-width:0.5;stroke-miterlimit:10;}
</style>
<title>call_now</title>
<g id="Calque_2">
	<g id="Layer_1_1_">
		<g id="_9Nbm8b.tif">
			<path class="st0" d="M-155.1,28.7h0.7c0.2,0,0.4,0.1,0.6,0.1c5,0.4,9.2,3.8,10.6,8.6c0.2,0.7,0.3,1.5,0.5,2.2v2.3
				c0,0.1-0.1,0.2-0.1,0.3c-0.8,6.6-6.8,11.3-13.4,10.4s-11.3-6.8-10.4-13.4c0.6-4.8,4.1-8.8,8.8-10.1
				C-156.9,28.9-156,28.8-155.1,28.7z M-154.7,50.7c5.5,0,10-4.5,10-10s-4.5-10-10-10c-5.5,0-10,4.5-10,10c0,5.5,4.4,10,9.9,10
				C-154.8,50.7-154.8,50.7-154.7,50.7L-154.7,50.7z"/>
			<path class="st0" d="M-157.1,35.5l1.6,2.7c-0.4,0.3-0.8,0.5-1.1,0.9c-0.2,0.2-0.2,0.5-0.2,0.8c0.5,1.2,1.3,2.2,2.3,3.1
				c0.3,0.3,0.8,0.4,1.1,0.1c0,0,0,0,0.1-0.1c0.3-0.3,0.6-0.5,0.9-0.8l2.2,2.1c-0.6,0.8-1.4,1.4-2.4,1.7c-0.3,0.1-0.7,0-1-0.1
				c-3-1.3-5.2-4.1-5.8-7.3c-0.1-0.5,0-1.1,0.4-1.5C-158.3,36.5-157.7,36-157.1,35.5z"/>
		</g>
	</g>
</g>
</svg>
