<svg xmlns="http://www.w3.org/2000/svg" viewBox="0 0 40.59 45.57"><defs><style>.cls-1{fill:#3d4551;fill-rule:evenodd;}.cls-2{fill:#cbab00;}</style></defs><title>livraison</title><g id="Calque_2" data-name="Calque 2"><g id="Layer_1" data-name="Layer 1"><path class="cls-1" d="M21.72,18V33.65a1.08,1.08,0,0,1-1.06,1.07H15.2A2.05,2.05,0,0,1,14,34.34a7,7,0,0,0-4-1.23,7.08,7.08,0,0,0-4,1.23,2.05,2.05,0,0,1-1.2.37H1.1A1.11,1.11,0,0,1,0,33.65V18a13,13,0,0,0,21.72,0Zm2.14,15.67V18a1,1,0,0,1,1-1H36.41a1.07,1.07,0,0,1,0,2.14h-2.1l1.2,7.16a1.24,1.24,0,0,0,1.11,1l3,.31a1,1,0,0,1,.94,1v.77H39.17a.71.71,0,0,0-.71.71h0a.71.71,0,0,0,.71.71h1.42v2.87a1,1,0,0,1-1,1H35.66a2.05,2.05,0,0,1-1.21-.38,7,7,0,0,0-4-1.23,7.08,7.08,0,0,0-4,1.23,2,2,0,0,1-1.2.37h-.39a1,1,0,0,1-1-1Zm9.53-7.55L32.19,19H25.81v6.53a.62.62,0,0,0,.56.62l6.33.64a.63.63,0,0,0,.68-.73ZM1,36.85H2.86a.53.53,0,0,1,.5.73,7.14,7.14,0,0,0-.48,3.31.53.53,0,0,1-.53.58H1a1.07,1.07,0,0,1-1-1.09V37.94a1.07,1.07,0,0,1,1-1.09Zm16,0h6.26a.53.53,0,0,1,.5.73,7.13,7.13,0,0,0-.48,3.31.53.53,0,0,1-.53.58H17.6a.53.53,0,0,1-.53-.58,7.25,7.25,0,0,0-.5-3.32.53.53,0,0,1,.5-.73Zm22.49,0a1.07,1.07,0,0,1,1,1.09v2.46a1.07,1.07,0,0,1-1,1.09H38.05a.53.53,0,0,1-.53-.58,7.24,7.24,0,0,0-.5-3.32.53.53,0,0,1,.5-.73ZM10,38.12a2.11,2.11,0,1,1-2.11,2.11A2.11,2.11,0,0,1,10,38.12Zm20.46,0a2.11,2.11,0,1,1-2.11,2.11,2.11,2.11,0,0,1,2.11-2.11Zm0-3.23a5.34,5.34,0,1,1-5.34,5.34,5.34,5.34,0,0,1,5.34-5.34ZM10,34.89a5.34,5.34,0,1,1-5.34,5.34A5.34,5.34,0,0,1,10,34.89Z"/><path class="cls-2" d="M10.86,21.72A10.86,10.86,0,1,1,21.72,10.86,10.86,10.86,0,0,1,10.86,21.72Zm0-8.68A2.18,2.18,0,0,1,10,8.86V4.61a.87.87,0,1,1,1.74,0V8.86A2.18,2.18,0,0,1,13,10.32l3.83,1.57a1.3,1.3,0,1,1-1,2.41L12,12.73a2.17,2.17,0,0,1-1.12.31Zm.95,4.34h0A5.6,5.6,0,0,1,7.42,8.13a1.77,1.77,0,0,0,.41-1.26V5a6.59,6.59,0,0,0,4,12.37ZM4.69,17a8.72,8.72,0,1,0,0-12.34A8.72,8.72,0,0,0,4.69,17Z"/></g></g></svg>