<svg xmlns="http://www.w3.org/2000/svg" viewBox="0 0 71.25 11.56"><defs><style>.cls-1{fill:#ccced5;}</style></defs><title>logo_footer</title><g id="Calque_2" data-name="Calque 2"><g id="Layer_1" data-name="Layer 1"><polygon class="cls-1" points="0 11.33 0 2.61 1.9 2.61 1.9 9.54 8.1 9.54 8.1 11.33 0 11.33"/><polygon class="cls-1" points="43.65 11.33 43.65 9.54 49.85 9.54 49.85 2.61 51.75 2.61 51.75 11.33 43.65 11.33"/><path class="cls-1" d="M11.95,7.1a2.68,2.68,0,0,0,.21,1.06,2.8,2.8,0,0,0,.59.87,2.68,2.68,0,0,0,.87.59,2.64,2.64,0,0,0,1.06.21,2.8,2.8,0,0,0,2-.8,3,3,0,0,0,.6-.87,2.56,2.56,0,0,0,.22-1.06A2.65,2.65,0,0,0,17.23,6a3,3,0,0,0-.6-.88,2.79,2.79,0,0,0-.88-.59,2.75,2.75,0,0,0-1.07-.21,2.67,2.67,0,0,0-1.06.21A2.72,2.72,0,0,0,12.16,6a2.78,2.78,0,0,0-.21,1.07m-1.72,0a4.2,4.2,0,0,1,.35-1.72,4.46,4.46,0,0,1,1-1.41A4.67,4.67,0,0,1,13,3a4.63,4.63,0,0,1,3.55,0,4.54,4.54,0,0,1,1.42,1,4.29,4.29,0,0,1,.93,1.41,4.62,4.62,0,0,1,0,3.44,4.38,4.38,0,0,1-2.35,2.38,4.49,4.49,0,0,1-1.79.36A4.76,4.76,0,0,1,13,11.21a4.24,4.24,0,0,1-2.39-2.32,4.48,4.48,0,0,1-.35-1.81"/><path class="cls-1" d="M28.34,9.25l.54.66.52.66a4.68,4.68,0,0,1-1.28.71,4.56,4.56,0,0,1-3.29-.09A4.53,4.53,0,0,1,22.43,8.8a4.36,4.36,0,0,1,0-3.44,4.44,4.44,0,0,1,1-1.41,4.69,4.69,0,0,1,1.43-1,4.41,4.41,0,0,1,1.75-.35,4.49,4.49,0,0,1,1.57.26,5,5,0,0,1,1.31.71L28.34,4.93a2.58,2.58,0,0,0-.79-.44,3,3,0,0,0-1-.15,2.84,2.84,0,0,0-1.11.21,2.88,2.88,0,0,0-.88.58A2.54,2.54,0,0,0,24,6a3,3,0,0,0,0,2.17,2.66,2.66,0,0,0,.58.87,2.8,2.8,0,0,0,.88.59,2.88,2.88,0,0,0,1.11.21,3,3,0,0,0,1-.15,2.61,2.61,0,0,0,.79-.44"/><path class="cls-1" d="M33.57,7.07a2.75,2.75,0,0,0,.21,1.09,2.67,2.67,0,0,0,.58.87,2.73,2.73,0,0,0,.87.58,2.88,2.88,0,0,0,1.11.21,3,3,0,0,0,1.12-.21A2.75,2.75,0,0,0,38.36,9a2.66,2.66,0,0,0,.58-.87,3,3,0,0,0,0-2.17,2.52,2.52,0,0,0-.58-.86,2.83,2.83,0,0,0-.89-.58,2.92,2.92,0,0,0-1.12-.21,2.84,2.84,0,0,0-1.11.21A2.64,2.64,0,0,0,33.78,6a2.7,2.7,0,0,0-.21,1.08m-1.74.1a4.4,4.4,0,0,1,.35-1.75A4.67,4.67,0,0,1,34.55,3a4.07,4.07,0,0,1,1.71-.36,3.86,3.86,0,0,1,1.11.15,3.81,3.81,0,0,1,.87.38,2.68,2.68,0,0,1,.59.47,1.74,1.74,0,0,1,.3.42l.08-1.19h1.66v8.47H39.14V10.26a2.24,2.24,0,0,1-.33.38,2.45,2.45,0,0,1-.58.42,4.37,4.37,0,0,1-.84.33,4,4,0,0,1-1.11.14,4.48,4.48,0,0,1-1.79-.36,4.39,4.39,0,0,1-1.41-1,4.45,4.45,0,0,1-.92-1.39,4.19,4.19,0,0,1-.33-1.66"/><path class="cls-1" d="M71.25,10.63a3.24,3.24,0,0,1-.52.31,5.62,5.62,0,0,1-.79.3,7.69,7.69,0,0,1-1,.23,7.16,7.16,0,0,1-1.18.09,5.9,5.9,0,0,1-2.38-.46,5.3,5.3,0,0,1-2.91-3.05,6.14,6.14,0,0,1-.39-2.19,6,6,0,0,1,.46-2.36A5.68,5.68,0,0,1,65.66.44,6,6,0,0,1,67.93,0a6.71,6.71,0,0,1,.92.06,7,7,0,0,1,.88.17,4.16,4.16,0,0,1,.73.26A1.91,1.91,0,0,1,71,.8l-.19.31-.15.26-.17.3-.25.46a1.83,1.83,0,0,0-.48-.24,5.29,5.29,0,0,0-.57-.16l-.6-.09-.55,0A4.19,4.19,0,0,0,64.1,4.17a3.92,3.92,0,0,0-.32,1.56,4,4,0,0,0,.3,1.53,4.42,4.42,0,0,0,.84,1.31,4,4,0,0,0,1.29.92,4,4,0,0,0,1.66.34,4.73,4.73,0,0,0,.93-.09,6.76,6.76,0,0,0,.82-.22,4.27,4.27,0,0,0,.61-.25,1,1,0,0,0,.29-.19Z"/></g></g></svg>